<svg width="136" height="24" viewBox="0 0 136 24" fill="none" xmlns="http://www.w3.org/2000/svg">
<path d="M-0.000249863 22.784V0.383995H5.18375V22.784H-0.000249863ZM10.4998 22.784V0.383995H20.0678C23.1824 0.383995 25.6038 1.10933 27.3318 2.56C29.0598 3.98933 29.9238 5.97333 29.9238 8.512C29.9238 10.176 29.5291 11.616 28.7398 12.832C27.9504 14.0267 26.8304 14.944 25.3798 15.584C23.9291 16.224 22.2011 16.544 20.1958 16.544H13.3798L15.6838 14.272V22.784H10.4998ZM24.7397 22.784L19.1398 14.656H24.6758L30.3398 22.784H24.7397ZM15.6838 14.848L13.3798 12.416H19.9078C21.5078 12.416 22.7024 12.0747 23.4918 11.392C24.2811 10.688 24.6758 9.728 24.6758 8.512C24.6758 7.27466 24.2811 6.31466 23.4918 5.632C22.7024 4.94933 21.5078 4.608 19.9078 4.608H13.3798L15.6838 2.144V14.848ZM50.4535 23.168C48.6615 23.168 46.9442 22.9333 45.3015 22.464C43.6588 21.9733 42.3362 21.344 41.3335 20.576L43.0935 16.672C44.0535 17.3547 45.1842 17.92 46.4855 18.368C47.8082 18.7947 49.1415 19.008 50.4855 19.008C51.5095 19.008 52.3308 18.912 52.9495 18.72C53.5895 18.5067 54.0588 18.2187 54.3575 17.856C54.6562 17.4933 54.8055 17.0773 54.8055 16.608C54.8055 16.0107 54.5708 15.5413 54.1015 15.2C53.6322 14.8373 53.0135 14.5493 52.2455 14.336C51.4775 14.1013 50.6242 13.888 49.6855 13.696C48.7682 13.4827 47.8402 13.2267 46.9015 12.928C45.9842 12.6293 45.1415 12.2453 44.3735 11.776C43.6055 11.3067 42.9762 10.688 42.4855 9.92C42.0162 9.152 41.7815 8.17066 41.7815 6.976C41.7815 5.696 42.1228 4.53333 42.8055 3.488C43.5095 2.42133 44.5548 1.57866 45.9415 0.959995C47.3495 0.319996 49.1095 -3.8147e-06 51.2215 -3.8147e-06C52.6295 -3.8147e-06 54.0162 0.170663 55.3815 0.511995C56.7468 0.831995 57.9522 1.32266 58.9975 1.984L57.3975 5.92C56.3522 5.32266 55.3068 4.88533 54.2615 4.608C53.2162 4.30933 52.1922 4.16 51.1895 4.16C50.1868 4.16 49.3655 4.27733 48.7255 4.512C48.0855 4.74666 47.6268 5.056 47.3495 5.43999C47.0722 5.80266 46.9335 6.22933 46.9335 6.72C46.9335 7.296 47.1682 7.76533 47.6375 8.128C48.1068 8.46933 48.7255 8.74666 49.4935 8.96C50.2615 9.17333 51.1042 9.38666 52.0215 9.6C52.9602 9.81333 53.8882 10.0587 54.8055 10.336C55.7442 10.6133 56.5975 10.9867 57.3655 11.456C58.1335 11.9253 58.7522 12.544 59.2215 13.312C59.7122 14.08 59.9575 15.0507 59.9575 16.224C59.9575 17.4827 59.6055 18.6347 58.9015 19.68C58.1975 20.7253 57.1415 21.568 55.7335 22.208C54.3468 22.848 52.5868 23.168 50.4535 23.168ZM78.8598 22.784V0.383995H84.0438V22.784H78.8598ZM63.4998 22.784V0.383995H68.6838V22.784H63.4998ZM68.2998 13.6V9.216H79.2438V13.6H68.2998ZM100.224 23.168C98.4528 23.168 96.8102 22.88 95.2955 22.304C93.8022 21.728 92.5008 20.9173 91.3915 19.872C90.3035 18.8267 89.4502 17.6 88.8315 16.192C88.2342 14.784 87.9355 13.248 87.9355 11.584C87.9355 9.92 88.2342 8.384 88.8315 6.976C89.4502 5.568 90.3142 4.34133 91.4235 3.296C92.5328 2.25066 93.8342 1.43999 95.3275 0.863995C96.8208 0.287996 98.4422 -3.8147e-06 100.192 -3.8147e-06C101.962 -3.8147e-06 103.583 0.287996 105.056 0.863995C106.549 1.43999 107.84 2.25066 108.928 3.296C110.037 4.34133 110.901 5.568 111.52 6.976C112.138 8.36266 112.448 9.89866 112.448 11.584C112.448 13.248 112.138 14.7947 111.52 16.224C110.901 17.632 110.037 18.8587 108.928 19.904C107.84 20.928 106.549 21.728 105.056 22.304C103.583 22.88 101.973 23.168 100.224 23.168ZM100.192 18.752C101.194 18.752 102.112 18.5813 102.944 18.24C103.797 17.8987 104.544 17.408 105.184 16.768C105.824 16.128 106.314 15.3707 106.656 14.496C107.018 13.6213 107.2 12.6507 107.2 11.584C107.2 10.5173 107.018 9.54666 106.656 8.672C106.314 7.79733 105.824 7.04 105.184 6.4C104.565 5.76 103.829 5.26933 102.976 4.928C102.122 4.58666 101.194 4.416 100.192 4.416C99.1888 4.416 98.2608 4.58666 97.4075 4.928C96.5755 5.26933 95.8395 5.76 95.1995 6.4C94.5595 7.04 94.0582 7.79733 93.6955 8.672C93.3542 9.54666 93.1835 10.5173 93.1835 11.584C93.1835 12.6293 93.3542 13.6 93.6955 14.496C94.0582 15.3707 94.5488 16.128 95.1675 16.768C95.8075 17.408 96.5542 17.8987 97.4075 18.24C98.2608 18.5813 99.1888 18.752 100.192 18.752ZM116.344 22.784V0.383995H126.04C128.045 0.383995 129.773 0.714662 131.224 1.376C132.674 2.016 133.794 2.944 134.584 4.16C135.373 5.376 135.768 6.82666 135.768 8.512C135.768 10.176 135.373 11.616 134.584 12.832C133.794 14.048 132.674 14.9867 131.224 15.648C129.773 16.288 128.045 16.608 126.04 16.608H119.224L121.528 14.272V22.784H116.344ZM121.528 14.848L119.224 12.384H125.752C127.352 12.384 128.546 12.0427 129.336 11.36C130.125 10.6773 130.52 9.728 130.52 8.512C130.52 7.27466 130.125 6.31466 129.336 5.632C128.546 4.94933 127.352 4.608 125.752 4.608H119.224L121.528 2.144V14.848Z" fill="black"/>
</svg>
