<svg width="24" height="22" viewBox="0 0 24 22" fill="none" xmlns="http://www.w3.org/2000/svg">
<path d="M10.1695 19.963C10.1695 20.3658 10.0502 20.7597 9.82668 21.0947C9.60319 21.4297 9.28554 21.6908 8.9139 21.8449C8.54225 21.9991 8.1333 22.0395 7.73877 21.9609C7.34423 21.8823 6.98183 21.6882 6.69738 21.4034C6.41294 21.1185 6.21923 20.7555 6.14075 20.3604C6.06227 19.9652 6.10255 19.5556 6.25649 19.1834C6.41043 18.8112 6.67112 18.4931 7.00559 18.2692C7.34006 18.0454 7.7333 17.9259 8.13556 17.9259C8.67498 17.9259 9.19231 18.1405 9.57374 18.5226C9.95517 18.9046 10.1695 19.4227 10.1695 19.963ZM18.7118 17.9259C18.3095 17.9259 17.9163 18.0454 17.5818 18.2692C17.2473 18.4931 16.9867 18.8112 16.8327 19.1834C16.6788 19.5556 16.6385 19.9652 16.717 20.3604C16.7955 20.7555 16.9892 21.1185 17.2736 21.4034C17.5581 21.6882 17.9205 21.8823 18.315 21.9609C18.7095 22.0395 19.1185 21.9991 19.4901 21.8449C19.8618 21.6908 20.1794 21.4297 20.4029 21.0947C20.6264 20.7597 20.7457 20.3658 20.7457 19.963C20.7457 19.4227 20.5314 18.9046 20.15 18.5226C19.7685 18.1405 19.2512 17.9259 18.7118 17.9259ZM23.946 5.65583L21.1708 14.6901C20.9936 15.2743 20.633 15.7858 20.1426 16.1485C19.6522 16.5113 19.0581 16.706 18.4484 16.7037H8.43353C7.81513 16.7017 7.21403 16.499 6.7203 16.1261C6.22657 15.7532 5.8668 15.23 5.69489 14.6351L2.21796 2.44444H1.22033C0.896681 2.44444 0.586285 2.31567 0.357428 2.08646C0.128571 1.85725 0 1.54638 0 1.22222C0 0.898069 0.128571 0.587192 0.357428 0.357981C0.586285 0.128769 0.896681 0 1.22033 0H2.52406C2.96576 0.00136669 3.39511 0.146139 3.74771 0.4126C4.1003 0.67906 4.35712 1.05284 4.47964 1.47787L5.221 4.07407H22.7796C22.9706 4.07406 23.1589 4.11894 23.3294 4.2051C23.4999 4.29127 23.6478 4.41631 23.7613 4.57017C23.8748 4.72404 23.9506 4.90242 23.9827 5.09099C24.0147 5.27955 24.0022 5.47302 23.946 5.65583ZM21.127 6.51852H5.9176L8.042 13.9639C8.06633 14.0491 8.1177 14.124 8.18835 14.1773C8.259 14.2306 8.34508 14.2594 8.43353 14.2593H18.4484C18.5355 14.2594 18.6203 14.2316 18.6904 14.1799C18.7605 14.1282 18.8122 14.0554 18.8379 13.972L21.127 6.51852Z" fill="black"/>
</svg>
