<svg width="25" height="22" viewBox="0 0 25 22" fill="none" xmlns="http://www.w3.org/2000/svg">
<path d="M18.0166 1.5C19.539 1.50009 20.915 2.09773 21.9199 3.17578C22.9173 4.24603 23.5 5.74528 23.5 7.43164C23.4999 8.98367 22.9698 10.474 21.6465 12.1543L21.3711 12.4922C19.9596 14.1769 17.9001 15.9199 15.3477 18.0713C14.4924 18.7923 13.515 19.6154 12.5 20.4932C11.4849 19.6155 10.5084 18.7922 9.65332 18.0713C7.10057 15.9196 5.04039 14.1777 3.62891 12.4932C2.10325 10.6722 1.50003 9.08689 1.5 7.43164C1.5 5.74506 2.08283 4.24604 3.08008 3.17578C4.08494 2.09777 5.46093 1.50009 6.9834 1.5C8.09159 1.5 9.09423 1.83944 10 2.53223C10.4648 2.88777 10.8986 3.33214 11.2891 3.86621L12.5 5.52246L13.7109 3.86719C14.1017 3.3327 14.5352 2.88789 15 2.53223L14.999 2.53125C15.905 1.83842 16.9085 1.5 18.0166 1.5Z" fill="white" stroke="black" stroke-width="3"/>
</svg>
