<svg width="24" height="24" viewBox="0 0 24 24" fill="none" xmlns="http://www.w3.org/2000/svg">
<path d="M12 0C9.62663 0 7.30655 0.703788 5.33316 2.02236C3.35977 3.34094 1.8217 5.21508 0.913451 7.4078C0.00519943 9.60051 -0.232441 12.0133 0.230582 14.3411C0.693605 16.6689 1.83649 18.807 3.51472 20.4853C5.19295 22.1635 7.33115 23.3064 9.65892 23.7694C11.9867 24.2324 14.3995 23.9948 16.5922 23.0866C18.7849 22.1783 20.6591 20.6402 21.9776 18.6668C23.2962 16.6934 24 14.3734 24 12C23.9965 8.81848 22.7311 5.76829 20.4814 3.51862C18.2317 1.26894 15.1815 0.00352914 12 0ZM6.61889 19.6189C7.23787 18.7725 8.04774 18.0841 8.98273 17.6096C9.91773 17.135 10.9515 16.8877 12 16.8877C13.0485 16.8877 14.0823 17.135 15.0173 17.6096C15.9523 18.0841 16.7621 18.7725 17.3811 19.6189C15.8084 20.7342 13.928 21.3333 12 21.3333C10.072 21.3333 8.19158 20.7342 6.61889 19.6189ZM8.88889 11.1111C8.88889 10.4958 9.07136 9.89429 9.41321 9.38267C9.75506 8.87105 10.241 8.47229 10.8094 8.23682C11.3779 8.00134 12.0035 7.93973 12.6069 8.05978C13.2104 8.17982 13.7648 8.47613 14.1999 8.91122C14.635 9.34632 14.9313 9.90066 15.0513 10.5042C15.1714 11.1077 15.1098 11.7332 14.8743 12.3017C14.6388 12.8702 14.2401 13.356 13.7284 13.6979C13.2168 14.0398 12.6153 14.2222 12 14.2222C11.1749 14.2222 10.3836 13.8944 9.80012 13.311C9.21667 12.7276 8.88889 11.9362 8.88889 11.1111ZM19.3333 17.7711C18.4691 16.6719 17.3676 15.7823 16.1111 15.1689C16.9119 14.358 17.455 13.3284 17.672 12.2096C17.8891 11.0908 17.7704 9.93284 17.331 8.88132C16.8916 7.8298 16.151 6.93172 15.2024 6.30006C14.2538 5.6684 13.1396 5.33137 12 5.33137C10.8604 5.33137 9.74617 5.6684 8.7976 6.30006C7.84902 6.93172 7.10844 7.8298 6.66901 8.88132C6.22958 9.93284 6.11093 11.0908 6.32799 12.2096C6.54505 13.3284 7.08813 14.358 7.88889 15.1689C6.63241 15.7823 5.53088 16.6719 4.66667 17.7711C3.58117 16.3951 2.90505 14.7412 2.71573 12.9987C2.5264 11.2563 2.83152 9.49583 3.59615 7.91875C4.36078 6.34167 5.55402 5.01175 7.03927 4.08124C8.52453 3.15073 10.2418 2.65723 11.9944 2.65723C13.7471 2.65723 15.4644 3.15073 16.9496 4.08124C18.4349 5.01175 19.6281 6.34167 20.3927 7.91875C21.1574 9.49583 21.4625 11.2563 21.2732 12.9987C21.0838 14.7412 20.4077 16.3951 19.3222 17.7711H19.3333Z" fill="black"/>
</svg>
